<?xml version="1.0" encoding="UTF-8" standalone="no"?>
<svg
   xmlns:dc="http://purl.org/dc/elements/1.1/"
   xmlns:cc="http://creativecommons.org/ns#"
   xmlns:rdf="http://www.w3.org/1999/02/22-rdf-syntax-ns#"
   xmlns:svg="http://www.w3.org/2000/svg"
   xmlns="http://www.w3.org/2000/svg"
   xmlns:sodipodi="http://sodipodi.sourceforge.net/DTD/sodipodi-0.dtd"
   xmlns:inkscape="http://www.inkscape.org/namespaces/inkscape"
   version="1.1"
   width="555"
   height="255"
   style="fill:none"
   id="svg8"
   sodipodi:docname="logo.svg"
   inkscape:version="1.0.1 (0767f8302a, 2020-10-17)">
  <metadata
     id="metadata14">
    <rdf:RDF>
      <cc:Work
         rdf:about="">
        <dc:format>image/svg+xml</dc:format>
        <dc:type
           rdf:resource="http://purl.org/dc/dcmitype/StillImage" />
        <dc:title />
      </cc:Work>
    </rdf:RDF>
  </metadata>
  <defs
     id="defs12" />
  <sodipodi:namedview
     pagecolor="#ffffff"
     bordercolor="#666666"
     borderopacity="1"
     objecttolerance="10"
     gridtolerance="10"
     guidetolerance="10"
     inkscape:pageopacity="0"
     inkscape:pageshadow="2"
     inkscape:window-width="1567"
     inkscape:window-height="802"
     id="namedview10"
     showgrid="false"
     inkscape:zoom="0.80761905"
     inkscape:cx="7.5707555"
     inkscape:cy="127.5"
     inkscape:window-x="223"
     inkscape:window-y="148"
     inkscape:window-maximized="0"
     inkscape:current-layer="svg8"
     inkscape:document-rotation="0" />
  <path
     d=""
     style="fill:none;stroke:#24292e;stroke-width:15;stroke-linecap:round;stroke-linejoin:round;stroke-opacity:1"
     id="path2" />
  <path
     d=""
     style="fill:none;stroke:#24292e;stroke-width:15;stroke-linecap:round;stroke-linejoin:round;stroke-opacity:1"
     id="path4" />
  <path
     d="m 7.5,7.5 v 0 240 m 15,-240 v 0 240 m 30,-240 v 0 240 m 75,-195 a 45,45 0 0 1 -45,45 v 0 l -15,30 v 0 l 15,30 a 45,45 0 0 1 45,45 m 0,-150 v 0 -45 0 h -30 v 30 h 30 m 0,165 v 0 45 0 h -30 v -30 h 30 m 30,-90 v 0 120 m 60,-60 v 0 h -30 v 60 m 30,-60 v 0 60 m -30,-30 v 0 h 30 m 30,-30 v 0 60 h 30 v -120 m -30,60 v 0 h 30 m 30,0 v 0 60 h 30 m -30,-60 v 0 h 30 v 0 30 h -30 m 60,-30 v 0 60 m 0,-60 v 0 h 30 v 0 60 m 30,-60 v 0 60 h 30 m 0,-60 v 0 h -30 m 30,0 v 0 30 h -30 m 60,-90 v 0 120 m -30,-90 v 0 h 60 m 30,30 v 0 h -30 v 30 h 30 v 30 h -30"
     style="fill:none;stroke:#24292e;stroke-width:15;stroke-linecap:square;stroke-linejoin:miter;stroke-opacity:1"
     id="path6" />
</svg>
